<svg width="781" height="760" viewBox="0 0 781 760" fill="none" xmlns="http://www.w3.org/2000/svg">
<circle cx="391" cy="380" r="250" fill="#E0E0E0"/>
<path d="M387.217 656.232C390.673 656.232 393.894 656.787 396.881 657.896C399.825 659.048 402.385 660.669 404.561 662.76C406.737 664.851 408.443 667.304 409.681 670.12C410.875 672.936 411.473 676.029 411.473 679.4C411.473 682.771 410.875 685.864 409.681 688.68C408.443 691.496 406.737 693.949 404.561 696.04C402.342 698.131 399.761 699.731 396.817 700.84C393.873 701.992 390.651 702.568 387.153 702.568C383.27 702.568 379.771 701.885 376.657 700.52C373.499 699.197 370.854 697.235 368.721 694.632L375.377 688.488C376.913 690.237 378.619 691.539 380.497 692.392C382.374 693.288 384.422 693.736 386.641 693.736C388.731 693.736 390.651 693.395 392.401 692.712C394.15 692.029 395.665 691.048 396.945 689.768C398.225 688.488 399.227 686.973 399.953 685.224C400.635 683.475 400.977 681.533 400.977 679.4C400.977 677.267 400.635 675.325 399.953 673.576C399.227 671.827 398.225 670.312 396.945 669.032C395.665 667.752 394.15 666.771 392.401 666.088C390.651 665.405 388.731 665.064 386.641 665.064C384.422 665.064 382.374 665.491 380.497 666.344C378.619 667.24 376.913 668.584 375.377 670.376L368.721 664.232C370.854 661.629 373.499 659.645 376.657 658.28C379.771 656.915 383.291 656.232 387.217 656.232Z" fill="#EFECEC"/>
<path d="M329.921 649.278C333.514 650.02 336.547 651.43 339.018 653.508C341.447 655.578 343.194 658.073 344.258 660.994C345.271 663.947 345.413 667.091 344.683 670.426C343.944 673.802 342.498 676.618 340.344 678.874C338.14 681.164 335.499 682.753 332.422 683.643C329.294 684.565 325.933 684.656 322.339 683.914C318.787 683.181 315.776 681.775 313.305 679.697C310.824 677.66 309.073 675.186 308.051 672.274C307.029 669.362 306.892 666.197 307.64 662.78C308.369 659.445 309.816 656.629 311.978 654.331C314.132 652.075 316.773 650.485 319.901 649.562C323.029 648.64 326.369 648.545 329.921 649.278ZM328.169 657.281C326.539 656.944 324.995 657.018 323.535 657.5C322.075 657.983 320.819 658.835 319.766 660.055C318.704 661.317 317.963 662.907 317.543 664.824C317.114 666.783 317.125 668.528 317.576 670.058C318.027 671.589 318.818 672.863 319.95 673.881C321.081 674.898 322.461 675.575 324.091 675.912C325.72 676.248 327.265 676.175 328.725 675.692C330.184 675.209 331.462 674.362 332.557 673.15C333.61 671.93 334.351 670.34 334.78 668.382C335.199 666.464 335.188 664.719 334.746 663.147C334.253 661.608 333.441 660.329 332.31 659.312C331.179 658.294 329.799 657.617 328.169 657.281Z" fill="#EFECEC"/>
<path d="M255.542 662.398C253.036 661.315 251.035 659.845 249.539 657.99C247.986 656.157 247.113 653.967 246.92 651.421C246.709 648.913 247.333 646.069 248.791 642.888L257.006 624.97L266.17 628.932L258.595 645.454C257.439 647.975 257.154 650.082 257.738 651.776C258.283 653.452 259.574 654.731 261.611 655.611C263.06 656.238 264.514 656.494 265.973 656.382C267.376 656.291 268.695 655.769 269.929 654.816C271.125 653.846 272.167 652.391 273.056 650.452L280.152 634.977L289.316 638.939L274.965 670.238L266.212 666.454L270.187 657.785L270.631 661.114C268.535 662.718 266.172 663.625 263.542 663.835C260.911 664.045 258.245 663.566 255.542 662.398Z" fill="#EFECEC"/>
<path d="M219.788 600.186C223.1 602.523 225.066 605.163 225.687 608.106C226.282 611.084 225.353 614.212 222.899 617.492L204.802 641.679L196.644 635.924L214.664 611.839C215.533 610.677 215.897 609.551 215.755 608.459C215.588 607.401 214.964 606.491 213.883 605.728C212.593 604.818 211.239 604.385 209.821 604.429L211.843 597.243C213.114 597.252 214.457 597.521 215.873 598.05C217.228 598.588 218.533 599.3 219.788 600.186ZM218.766 631.879L214.165 638.029L194.659 624.267L199.26 618.117L218.766 631.879Z" fill="#EFECEC"/>
<path d="M174.671 560.773L169.612 565.197L168.939 566.635L159.881 574.555C158.275 575.959 157.472 577.539 157.472 579.295C157.443 581.02 158.342 582.868 160.17 584.839C161.417 586.185 162.875 587.318 164.543 588.239C166.15 589.156 167.743 589.746 169.324 590.007L166.509 597.227C164.237 596.721 161.928 595.737 159.583 594.275C157.239 592.812 155.138 591.08 153.281 589.078C149.713 585.229 147.874 581.427 147.765 577.671C147.655 573.914 149.575 570.309 153.526 566.854L168.318 553.922L174.671 560.773ZM182.193 568.133C184.02 570.104 185.25 572.088 185.881 574.086C186.479 576.112 186.533 578.02 186.04 579.81C185.548 581.6 184.563 583.141 183.086 584.432C181.544 585.78 179.861 586.6 178.038 586.892C176.185 587.152 174.198 586.765 172.076 585.731C169.922 584.725 167.656 582.939 165.277 580.374L159.054 573.663L163.439 569.829L168.921 575.743C170.517 577.463 171.908 578.4 173.096 578.551C174.254 578.671 175.267 578.352 176.134 577.594C177.098 576.751 177.535 575.718 177.446 574.493C177.296 573.264 176.626 572.009 175.437 570.726C174.305 569.506 173.001 568.663 171.523 568.199C170.014 567.763 168.478 567.831 166.915 568.404L169.34 564.245C171.503 563.316 173.671 563.177 175.844 563.826C178.017 564.476 180.133 565.912 182.193 568.133Z" fill="#EFECEC"/>
<path d="M142.524 514.573C144.421 517.764 145.46 520.971 145.64 524.195C145.783 527.44 145.107 530.435 143.613 533.18C142.097 535.888 139.85 538.077 136.873 539.746C133.858 541.436 130.783 542.231 127.647 542.131C124.452 542.015 121.462 541.076 118.677 539.312C115.854 537.569 113.494 535.103 111.597 531.912C109.744 528.795 108.8 525.705 108.766 522.644C108.695 519.603 109.561 516.844 111.363 514.367L118.949 518.989C117.993 520.552 117.528 522.108 117.556 523.657C117.562 525.169 117.969 526.604 118.776 527.961C119.648 529.428 120.768 530.56 122.135 531.358C123.503 532.156 125.008 532.56 126.65 532.568C128.271 532.539 129.956 532.035 131.705 531.054C133.454 530.074 134.747 528.909 135.582 527.56C136.396 526.175 136.789 524.708 136.761 523.158C136.734 521.609 136.284 520.101 135.411 518.634C134.605 517.277 133.547 516.208 132.238 515.426C130.871 514.628 129.232 514.25 127.323 514.294L127.05 505.572C130.123 505.316 133.016 505.968 135.73 507.527C138.406 509.107 140.671 511.456 142.524 514.573Z" fill="#EFECEC"/>
<path d="M119.341 460.541C120.627 464.385 120.652 467.688 119.417 470.448C118.14 473.222 115.549 475.225 111.643 476.457L82.8348 485.547L79.6668 476.079L108.353 467.028C109.736 466.591 110.693 465.887 111.222 464.915C111.711 463.955 111.745 462.848 111.326 461.594C110.825 460.097 109.991 458.951 108.826 458.156L114.686 453.488C115.703 454.241 116.625 455.248 117.451 456.508C118.223 457.74 118.853 459.085 119.341 460.541ZM99.84 485.751L92.5159 488.062L84.941 465.423L92.2651 463.112L99.84 485.751Z" fill="#EFECEC"/>
<path d="M96.0522 349.94C95.864 351.679 95.1325 353.084 93.8579 354.155C92.5833 355.225 91.0122 355.665 89.1446 355.475C87.277 355.284 85.8556 354.539 84.8806 353.238C83.8631 351.934 83.4485 350.412 83.6367 348.673C83.8341 346.849 84.5678 345.422 85.8379 344.394C87.0654 343.361 88.613 342.94 90.4807 343.131C92.3483 343.322 93.7931 344.048 94.8152 345.31C95.8373 346.573 96.2496 348.116 96.0522 349.94Z" fill="#EFECEC"/>
<path d="M131.159 263.541L92.0816 241.632L96.4644 234.26L133.789 233.328L131.467 237.234L113.472 205.655L117.822 198.338L156.965 220.137L151.994 228.498L125.891 213.937L126.806 212.397L141.092 237.57L138.705 241.585L108.948 242.433L110.06 240.563L136.131 255.179L131.159 263.541Z" fill="#EFECEC"/>
<path d="M180.146 194.074C177.478 196.952 174.55 198.981 171.363 200.16C168.204 201.308 165.079 201.605 161.985 201.053C158.859 200.473 156.011 199.059 153.441 196.812C150.84 194.537 149.08 191.951 148.162 189.052C147.24 186.094 147.16 183.106 147.922 180.09C148.651 177.045 150.205 174.24 152.584 171.674C154.876 169.203 157.482 167.459 160.401 166.443C163.318 165.367 166.325 165.135 169.422 165.747C172.487 166.33 175.416 167.844 178.211 170.287C178.5 170.54 178.823 170.851 179.179 171.219C179.503 171.559 179.812 171.885 180.104 172.197L161.088 192.706L156.703 188.872L172.151 172.212L170.841 176.165C169.492 174.986 168.073 174.227 166.584 173.888C165.095 173.549 163.643 173.61 162.226 174.072C160.778 174.505 159.473 175.347 158.313 176.598C157.153 177.85 156.412 179.213 156.091 180.689C155.766 182.105 155.872 183.528 156.406 184.959C156.909 186.361 157.851 187.666 159.232 188.874L160.388 189.885C161.802 191.12 163.33 191.919 164.973 192.279C166.613 192.58 168.23 192.436 169.824 191.846C171.414 191.197 172.905 190.122 174.298 188.62C175.545 187.275 176.425 185.919 176.935 184.553C177.475 183.155 177.719 181.669 177.667 180.094L185.615 179.99C185.891 182.328 185.586 184.695 184.7 187.093C183.782 189.463 182.264 191.79 180.146 194.074Z" fill="#EFECEC"/>
<path d="M269.778 116.681C268.172 117.376 266.581 117.436 265.004 116.863C263.428 116.29 262.248 115.15 261.466 113.444C260.683 111.737 260.609 110.143 261.243 108.66C261.86 107.139 262.971 106.031 264.577 105.337C266.261 104.609 267.871 104.54 269.409 105.13C270.929 105.681 272.08 106.81 272.862 108.517C273.645 110.223 273.747 111.828 273.17 113.333C272.593 114.837 271.462 115.953 269.778 116.681Z" fill="#EFECEC"/>
<path d="M393.783 103.768C390.327 103.768 387.106 103.213 384.119 102.104C381.175 100.952 378.615 99.3307 376.439 97.24C374.263 95.1493 372.557 92.696 371.319 89.88C370.125 87.064 369.527 83.9707 369.527 80.6C369.527 77.2293 370.125 74.136 371.319 71.32C372.557 68.504 374.263 66.0507 376.439 63.96C378.658 61.8693 381.239 60.2693 384.183 59.16C387.127 58.008 390.349 57.432 393.847 57.432C397.73 57.432 401.229 58.1147 404.343 59.48C407.501 60.8027 410.146 62.7653 412.279 65.368L405.623 71.512C404.087 69.7627 402.381 68.4613 400.503 67.608C398.626 66.712 396.578 66.264 394.359 66.264C392.269 66.264 390.349 66.6053 388.599 67.288C386.85 67.9707 385.335 68.952 384.055 70.232C382.775 71.512 381.773 73.0267 381.047 74.776C380.365 76.5253 380.023 78.4667 380.023 80.6C380.023 82.7333 380.365 84.6747 381.047 86.424C381.773 88.1733 382.775 89.688 384.055 90.968C385.335 92.248 386.85 93.2293 388.599 93.912C390.349 94.5947 392.269 94.936 394.359 94.936C396.578 94.936 398.626 94.5093 400.503 93.656C402.381 92.76 404.087 91.416 405.623 89.624L412.279 95.768C410.146 98.3707 407.501 100.355 404.343 101.72C401.229 103.085 397.709 103.768 393.783 103.768Z" fill="#EFECEC"/>
<path d="M451.079 110.722C447.486 109.981 444.453 108.57 441.982 106.492C439.553 104.422 437.806 101.927 436.742 99.0068C435.729 96.0532 435.587 92.9093 436.317 89.5749C437.056 86.1988 438.502 83.3826 440.656 81.1262C442.86 78.8367 445.501 77.2472 448.578 76.3576C451.706 75.435 455.067 75.3446 458.661 76.0863C462.213 76.8194 465.224 78.2252 467.695 80.3035C470.176 82.3402 471.927 84.8144 472.949 87.7263C473.971 90.6382 474.108 93.803 473.36 97.2208C472.631 100.555 471.184 103.371 469.022 105.669C466.868 107.926 464.227 109.515 461.099 110.438C457.971 111.361 454.631 111.455 451.079 110.722ZM452.831 102.72C454.461 103.056 456.005 102.983 457.465 102.5C458.925 102.017 460.181 101.166 461.234 99.9454C462.296 98.6835 463.037 97.094 463.457 95.1767C463.886 93.2177 463.875 91.4729 463.424 89.9422C462.973 88.4116 462.182 87.1374 461.05 86.1198C459.919 85.1022 458.539 84.4252 456.909 84.0889C455.28 83.7525 453.735 83.8257 452.275 84.3086C450.816 84.7915 449.538 85.6387 448.443 86.8502C447.39 88.0704 446.649 89.66 446.22 91.619C445.801 93.5362 445.812 95.281 446.254 96.8534C446.747 98.3927 447.559 99.6712 448.69 100.689C449.821 101.706 451.201 102.383 452.831 102.72Z" fill="#EFECEC"/>
<path d="M525.458 97.6013C527.964 98.685 529.965 100.154 531.461 102.009C533.014 103.842 533.887 106.032 534.08 108.579C534.291 111.087 533.667 113.931 532.209 117.111L523.994 135.029L514.83 131.067L522.405 114.545C523.561 112.024 523.846 109.917 523.262 108.224C522.717 106.547 521.426 105.269 519.389 104.388C517.94 103.762 516.486 103.505 515.027 103.618C513.624 103.708 512.305 104.23 511.071 105.184C509.875 106.154 508.833 107.608 507.944 109.548L500.848 125.023L491.684 121.061L506.035 89.7616L514.788 93.5459L510.813 102.214L510.369 98.8851C512.465 97.2818 514.828 96.3749 517.458 96.1645C520.089 95.9541 522.755 96.433 525.458 97.6013Z" fill="#EFECEC"/>
<path d="M561.213 159.813C557.901 157.476 555.934 154.836 555.313 151.893C554.718 148.915 555.647 145.787 558.101 142.507L576.198 118.32L584.356 124.075L566.336 148.16C565.467 149.322 565.103 150.448 565.245 151.54C565.412 152.598 566.036 153.508 567.117 154.271C568.407 155.181 569.761 155.614 571.179 155.57L569.158 162.757C567.886 162.747 566.543 162.478 565.128 161.949C563.773 161.411 562.468 160.699 561.213 159.813ZM562.234 128.12L566.835 121.97L586.341 135.732L581.74 141.882L562.234 128.12Z" fill="#EFECEC"/>
<path d="M606.329 199.229L611.388 194.806L612.061 193.368L621.119 185.448C622.725 184.044 623.528 182.463 623.528 180.707C623.557 178.982 622.658 177.134 620.83 175.163C619.583 173.818 618.125 172.685 616.457 171.764C614.85 170.846 613.257 170.257 611.677 169.995L614.491 162.775C616.764 163.281 619.072 164.266 621.417 165.728C623.761 167.19 625.862 168.923 627.719 170.925C631.287 174.773 633.126 178.575 633.236 182.332C633.345 186.088 631.425 189.694 627.474 193.148L612.683 206.081L606.329 199.229ZM598.807 191.87C596.98 189.898 595.75 187.914 595.12 185.916C594.521 183.891 594.467 181.983 594.96 180.193C595.452 178.403 596.437 176.862 597.914 175.57C599.456 174.222 601.139 173.402 602.962 173.111C604.815 172.851 606.802 173.238 608.924 174.271C611.078 175.277 613.344 177.063 615.723 179.628L621.946 186.339L617.562 190.173L612.079 184.26C610.483 182.539 609.092 181.603 607.904 181.451C606.746 181.331 605.733 181.65 604.866 182.408C603.902 183.251 603.465 184.285 603.554 185.51C603.704 186.738 604.374 187.994 605.563 189.277C606.695 190.497 607.999 191.339 609.477 191.803C610.986 192.24 612.522 192.171 614.085 191.598L611.66 195.758C609.497 196.686 607.329 196.826 605.156 196.176C602.983 195.526 600.867 194.091 598.807 191.87Z" fill="#EFECEC"/>
<path d="M638.476 245.427C636.579 242.236 635.54 239.029 635.36 235.805C635.217 232.56 635.893 229.565 637.387 226.82C638.903 224.112 641.15 221.923 644.127 220.254C647.142 218.564 650.217 217.769 653.353 217.869C656.548 217.985 659.538 218.924 662.324 220.688C665.146 222.431 667.506 224.897 669.403 228.088C671.256 231.205 672.2 234.295 672.234 237.356C672.305 240.397 671.439 243.156 669.637 245.633L662.051 241.011C663.007 239.448 663.472 237.892 663.444 236.343C663.438 234.831 663.031 233.396 662.225 232.039C661.352 230.572 660.232 229.44 658.865 228.642C657.497 227.844 655.992 227.44 654.35 227.432C652.729 227.461 651.044 227.965 649.295 228.946C647.546 229.926 646.253 231.091 645.418 232.44C644.604 233.825 644.211 235.292 644.239 236.842C644.267 238.391 644.717 239.899 645.589 241.366C646.396 242.723 647.453 243.792 648.762 244.574C650.13 245.372 651.768 245.75 653.677 245.706L653.95 254.428C650.877 254.684 647.984 254.032 645.27 252.473C642.594 250.893 640.329 248.544 638.476 245.427Z" fill="#EFECEC"/>
<path d="M661.66 299.458C660.373 295.614 660.348 292.312 661.584 289.551C662.86 286.778 665.451 284.775 669.357 283.542L698.165 274.453L701.333 283.921L672.647 292.972C671.264 293.408 670.307 294.113 669.778 295.085C669.289 296.044 669.255 297.151 669.675 298.405C670.175 299.902 671.009 301.049 672.175 301.844L666.314 306.511C665.297 305.758 664.376 304.752 663.549 303.492C662.777 302.259 662.147 300.915 661.66 299.458ZM681.16 274.249L688.484 271.938L696.059 294.576L688.735 296.887L681.16 274.249Z" fill="#EFECEC"/>
<path d="M684.948 410.06C685.136 408.321 685.867 406.916 687.142 405.845C688.417 404.775 689.988 404.335 691.855 404.525C693.723 404.716 695.144 405.461 696.119 406.762C697.137 408.066 697.552 409.588 697.363 411.327C697.166 413.151 696.432 414.578 695.162 415.606C693.935 416.639 692.387 417.06 690.519 416.869C688.652 416.678 687.207 415.952 686.185 414.69C685.163 413.427 684.75 411.884 684.948 410.06Z" fill="#EFECEC"/>
<path d="M648.097 495.481L687.174 517.389L682.791 524.761L645.467 525.693L647.789 521.787L665.784 553.367L661.434 560.683L622.291 538.885L627.262 530.523L653.365 545.084L652.449 546.624L638.163 521.452L640.551 517.436L670.307 516.588L669.195 518.459L643.125 503.843L648.097 495.481Z" fill="#EFECEC"/>
<path d="M599.348 564.608C602.017 561.73 604.945 559.701 608.132 558.522C611.29 557.374 614.416 557.077 617.51 557.629C620.636 558.209 623.484 559.623 626.053 561.87C628.655 564.145 630.415 566.731 631.333 569.63C632.254 572.588 632.334 575.576 631.573 578.592C630.843 581.637 629.289 584.442 626.91 587.008C624.619 589.479 622.013 591.223 619.093 592.239C616.176 593.315 613.17 593.547 610.073 592.935C607.008 592.352 604.078 590.838 601.284 588.395C600.995 588.142 600.672 587.832 600.316 587.463C599.991 587.123 599.683 586.797 599.391 586.485L618.407 565.976L622.791 569.81L607.343 586.47L608.653 582.517C610.003 583.696 611.422 584.455 612.91 584.794C614.399 585.133 615.852 585.072 617.268 584.611C618.717 584.177 620.021 583.335 621.182 582.084C622.342 580.832 623.083 579.469 623.404 577.993C623.728 576.577 623.623 575.154 623.088 573.724C622.586 572.321 621.644 571.016 620.263 569.808L619.106 568.797C617.693 567.562 616.165 566.764 614.522 566.403C612.881 566.102 611.264 566.246 609.671 566.836C608.081 567.485 606.589 568.56 605.197 570.062C603.949 571.407 603.07 572.763 602.559 574.129C602.02 575.527 601.776 577.013 601.827 578.588L593.879 578.692C593.604 576.355 593.909 573.987 594.795 571.589C595.713 569.219 597.23 566.892 599.348 564.608Z" fill="#EFECEC"/>
<path d="M510.388 641.5C511.994 640.805 513.585 640.745 515.162 641.318C516.739 641.891 517.918 643.031 518.701 644.737C519.483 646.444 519.557 648.038 518.923 649.521C518.307 651.042 517.195 652.15 515.59 652.844C513.906 653.572 512.295 653.641 510.757 653.051C509.238 652.5 508.087 651.371 507.304 649.665C506.522 647.958 506.419 646.353 506.996 644.848C507.574 643.344 508.704 642.228 510.388 641.5Z" fill="#EFECEC"/>
<path d="M390.819 539.4C366.085 539.4 343.569 535.433 323.269 527.5C302.969 519.567 285.469 508.367 270.769 493.9C256.069 479.433 244.752 462.517 236.819 443.15C228.885 423.55 224.919 402.2 224.919 379.1C224.919 356 228.885 334.767 236.819 315.4C244.752 296.033 256.069 279.233 270.769 265C285.702 250.767 303.435 239.683 323.969 231.75C344.502 223.817 367.252 219.85 392.219 219.85C416.252 219.85 438.302 223.7 458.369 231.4C478.435 238.867 495.702 249.483 510.169 263.25C524.869 276.783 536.185 292.883 544.119 311.55C552.285 330.217 556.369 350.75 556.369 373.15C556.369 393.217 553.685 410.6 548.319 425.3C542.952 439.767 535.252 450.85 525.219 458.55C515.419 466.25 503.402 470.1 489.169 470.1C474.702 470.1 463.152 465.783 454.519 457.15C446.119 448.517 441.919 436.033 441.919 419.7V399.75L443.319 379.8L440.169 334.3V294.4H479.019V413.4C479.019 422.267 480.769 428.567 484.269 432.3C488.002 435.8 492.319 437.55 497.219 437.55C503.519 437.55 508.885 435.1 513.319 430.2C517.752 425.3 521.019 418.067 523.119 408.5C525.452 398.933 526.619 387.383 526.619 373.85C526.619 355.183 523.352 338.15 516.819 322.75C510.519 307.35 501.302 294.167 489.169 283.2C477.269 272 463.035 263.483 446.469 257.65C430.135 251.583 412.052 248.55 392.219 248.55C371.919 248.55 353.485 251.817 336.919 258.35C320.352 264.65 306.119 273.633 294.219 285.3C282.319 296.967 273.102 310.85 266.569 326.95C260.269 342.817 257.119 360.2 257.119 379.1C257.119 398.467 260.269 416.2 266.569 432.3C272.869 448.4 281.852 462.167 293.519 473.6C305.419 485.267 319.535 494.25 335.869 500.55C352.202 507.083 370.519 510.35 390.819 510.35C401.552 510.35 412.869 509.067 424.769 506.5C436.669 504.167 447.985 500.317 458.719 494.95L468.169 522.95C457.435 528.317 445.069 532.4 431.069 535.2C417.069 538 403.652 539.4 390.819 539.4ZM381.719 470.1C365.619 470.1 351.269 466.367 338.669 458.9C326.069 451.2 316.035 440.7 308.569 427.4C301.335 413.867 297.719 398.35 297.719 380.85C297.719 363.583 301.335 348.3 308.569 335C315.802 321.467 325.719 310.967 338.319 303.5C351.152 296.033 365.619 292.3 381.719 292.3C397.352 292.3 411.002 295.8 422.669 302.8C434.335 309.567 443.435 319.483 449.969 332.55C456.502 345.617 459.769 361.717 459.769 380.85C459.769 399.983 456.619 416.2 450.319 429.5C444.019 442.8 435.035 452.95 423.369 459.95C411.702 466.717 397.819 470.1 381.719 470.1ZM389.069 436.15C399.102 436.15 407.969 434.05 415.669 429.85C423.369 425.417 429.435 419 433.869 410.6C438.535 402.2 440.869 392.283 440.869 380.85C440.869 369.183 438.535 359.383 433.869 351.45C429.435 343.283 423.369 337.1 415.669 332.9C407.969 328.467 399.102 326.25 389.069 326.25C378.802 326.25 369.702 328.467 361.769 332.9C354.069 337.333 348.002 343.633 343.569 351.8C339.369 359.967 337.269 369.65 337.269 380.85C337.269 392.283 339.369 402.083 343.569 410.25C348.002 418.417 354.069 424.833 361.769 429.5C369.702 433.933 378.802 436.15 389.069 436.15Z" fill="#E0E0E0"/>
</svg>
